<svg xmlns="http://www.w3.org/2000/svg" width="1920" height="1080"><path d="M752,1437L147,1430L1713,1481Z" fill="#4976aa" stroke="#4976aa" stroke-width="1.51"/><path d="M1160,1408L752,1437L1713,1481Z" fill="#326aa3" stroke="#326aa3" stroke-width="1.51"/><path d="M173,-376L372,-377L1868,-401Z" fill="#bbd8ec" stroke="#bbd8ec" stroke-width="1.51"/><path d="M1268,-342L1509,-346L1868,-401Z" fill="#97b5db" stroke="#97b5db" stroke-width="1.51"/><path d="M915,-350L1268,-342L1868,-401Z" fill="#9ec0e0" stroke="#9ec0e0" stroke-width="1.51"/><path d="M372,-377L915,-350L1868,-401Z" fill="#accde7" stroke="#accde7" stroke-width="1.51"/><path d="M2158,-307L2188,-84L2225,83Z" fill="#7a8cb8" stroke="#7a8cb8" stroke-width="1.51"/><path d="M1981,1396L1713,1481L2231,1417Z" fill="#0a488e" stroke="#0a488e" stroke-width="1.51"/><path d="M2246,877L2040,1158L2276,1188Z" fill="#155599" stroke="#155599" stroke-width="1.51"/><path d="M2040,1158L2231,1417L2276,1188Z" fill="#0b4990" stroke="#0b4990" stroke-width="1.51"/><path d="M2225,83L1945,166L2295,350Z" fill="#6685b4" stroke="#6685b4" stroke-width="1.51"/><path d="M1945,166L2011,487L2295,350Z" fill="#5c84b7" stroke="#5c84b7" stroke-width="1.51"/><path d="M2158,-307L2225,83L2295,350Z" fill="#7186b3" stroke="#7186b3" stroke-width="1.51"/><path d="M2011,487L2191,653L2295,350Z" fill="#4877ad" stroke="#4877ad" stroke-width="1.51"/><path d="M2191,653L2246,877L2295,350Z" fill="#3a6ca3" stroke="#3a6ca3" stroke-width="1.51"/><path d="M2246,877L2276,1188L2295,350Z" fill="#28619c" stroke="#28619c" stroke-width="1.51"/><path d="M2040,1158L1981,1396L2231,1417Z" fill="#094a91" stroke="#094a91" stroke-width="1.51"/><path d="M1905,995L2040,1158L2246,877Z" fill="#1a5fa4" stroke="#1a5fa4" stroke-width="1.51"/><path d="M2191,653L2005,647L2246,877Z" fill="#326ca7" stroke="#326ca7" stroke-width="1.51"/><path d="M2005,647L1905,995L2246,877Z" fill="#286aab" stroke="#286aab" stroke-width="1.51"/><path d="M2188,-84L1945,166L2225,83Z" fill="#738bbb" stroke="#738bbb" stroke-width="1.51"/><path d="M2158,-307L1867,-142L2188,-84Z" fill="#8194c3" stroke="#8194c3" stroke-width="1.51"/><path d="M1867,-142L1945,166L2188,-84Z" fill="#7b94c6" stroke="#7b94c6" stroke-width="1.51"/><path d="M2011,487L2005,647L2191,653Z" fill="#3f77b1" stroke="#3f77b1" stroke-width="1.51"/><path d="M1868,-401L1867,-142L2158,-307Z" fill="#899dcb" stroke="#899dcb" stroke-width="1.51"/><path d="M1867,-142L1796,-56L1945,166Z" fill="#7d9acb" stroke="#7d9acb" stroke-width="1.51"/><path d="M1770,976L1905,995L2005,647Z" fill="#2970b1" stroke="#2970b1" stroke-width="1.51"/><path d="M1638,749L1770,976L2005,647Z" fill="#307ab8" stroke="#307ab8" stroke-width="1.51"/><path d="M1945,166L1738,395L2011,487Z" fill="#5e8cc0" stroke="#5e8cc0" stroke-width="1.51"/><path d="M1777,1119L1981,1396L2040,1158Z" fill="#1057a1" stroke="#1057a1" stroke-width="1.51"/><path d="M1905,995L1777,1119L2040,1158Z" fill="#1761a9" stroke="#1761a9" stroke-width="1.51"/><path d="M1738,395L2005,647L2011,487Z" fill="#4a83bc" stroke="#4a83bc" stroke-width="1.51"/><path d="M1738,395L1638,749L2005,647Z" fill="#4485be" stroke="#4485be" stroke-width="1.51"/><path d="M1713,216L1738,395L1945,166Z" fill="#6996c7" stroke="#6996c7" stroke-width="1.51"/><path d="M1777,1119L1713,1481L1981,1396Z" fill="#10559e" stroke="#10559e" stroke-width="1.51"/><path d="M1796,-56L1713,216L1945,166Z" fill="#7699ca" stroke="#7699ca" stroke-width="1.51"/><path d="M1435,1366L1160,1408L1713,1481Z" fill="#2462a0" stroke="#2462a0" stroke-width="1.51"/><path d="M1641,-281L1867,-142L1868,-401Z" fill="#8ca6d2" stroke="#8ca6d2" stroke-width="1.51"/><path d="M1770,976L1777,1119L1905,995Z" fill="#1d69af" stroke="#1d69af" stroke-width="1.51"/><path d="M1641,-281L1796,-56L1867,-142Z" fill="#87a4d1" stroke="#87a4d1" stroke-width="1.51"/><path d="M1509,-346L1641,-281L1868,-401Z" fill="#93aed7" stroke="#93aed7" stroke-width="1.51"/><path d="M-212,-250L-10,-308L173,-376Z" fill="#e1ecf8" stroke="#e1ecf8" stroke-width="1.51"/><path d="M1456,615L1638,749L1738,395Z" fill="#498ec5" stroke="#498ec5" stroke-width="1.51"/><path d="M1435,1366L1713,1481L1777,1119Z" fill="#175fa5" stroke="#175fa5" stroke-width="1.51"/><path d="M1429,1172L1435,1366L1777,1119Z" fill="#206aae" stroke="#206aae" stroke-width="1.51"/><path d="M1641,-281L1425,3L1796,-56Z" fill="#88aad5" stroke="#88aad5" stroke-width="1.51"/><path d="M1484,140L1713,216L1796,-56Z" fill="#7aa1d0" stroke="#7aa1d0" stroke-width="1.51"/><path d="M1425,3L1484,140L1796,-56Z" fill="#82a8d4" stroke="#82a8d4" stroke-width="1.51"/><path d="M1638,749L1476,866L1770,976Z" fill="#307dbc" stroke="#307dbc" stroke-width="1.51"/><path d="M1476,866L1429,1172L1770,976Z" fill="#2977b8" stroke="#2977b8" stroke-width="1.51"/><path d="M1770,976L1429,1172L1777,1119Z" fill="#1f6db2" stroke="#1f6db2" stroke-width="1.51"/><path d="M1713,216L1417,389L1738,395Z" fill="#669bcb" stroke="#669bcb" stroke-width="1.51"/><path d="M1417,389L1456,615L1738,395Z" fill="#5998ca" stroke="#5998ca" stroke-width="1.51"/><path d="M1484,140L1417,389L1713,216Z" fill="#71a3cf" stroke="#71a3cf" stroke-width="1.51"/><path d="M1509,-346L1425,3L1641,-281Z" fill="#90b2d9" stroke="#90b2d9" stroke-width="1.51"/><path d="M1456,615L1476,866L1638,749Z" fill="#3e8ac2" stroke="#3e8ac2" stroke-width="1.51"/><path d="M1268,-342L1164,-63L1425,3Z" fill="#94bcde" stroke="#94bcde" stroke-width="1.51"/><path d="M1292,904L1260,1091L1429,1172Z" fill="#327fbc" stroke="#327fbc" stroke-width="1.51"/><path d="M1456,615L1292,904L1476,866Z" fill="#3d8cc3" stroke="#3d8cc3" stroke-width="1.51"/><path d="M1292,904L1429,1172L1476,866Z" fill="#3381bd" stroke="#3381bd" stroke-width="1.51"/><path d="M1268,-342L1425,3L1509,-346Z" fill="#95b9dd" stroke="#95b9dd" stroke-width="1.51"/><path d="M1127,743L1292,904L1456,615Z" fill="#4794c8" stroke="#4794c8" stroke-width="1.51"/><path d="M1417,389L1251,498L1456,615Z" fill="#5a9ecd" stroke="#5a9ecd" stroke-width="1.51"/><path d="M1425,3L1206,93L1484,140Z" fill="#85b1d8" stroke="#85b1d8" stroke-width="1.51"/><path d="M1206,93L1417,389L1484,140Z" fill="#7aadd5" stroke="#7aadd5" stroke-width="1.51"/><path d="M1260,1091L1160,1408L1429,1172Z" fill="#3076b5" stroke="#3076b5" stroke-width="1.51"/><path d="M1429,1172L1160,1408L1435,1366Z" fill="#2a6dad" stroke="#2a6dad" stroke-width="1.51"/><path d="M1251,498L1127,743L1456,615Z" fill="#539ccc" stroke="#539ccc" stroke-width="1.51"/><path d="M1206,93L1251,498L1417,389Z" fill="#71acd3" stroke="#71acd3" stroke-width="1.51"/><path d="M1164,-63L1206,93L1425,3Z" fill="#8eb8dc" stroke="#8eb8dc" stroke-width="1.51"/><path d="M907,1377L752,1437L1160,1408Z" fill="#4476ad" stroke="#4476ad" stroke-width="1.51"/><path d="M876,125L870,456L1206,93Z" fill="#8abddd" stroke="#8abddd" stroke-width="1.51"/><path d="M1206,93L870,456L1251,498Z" fill="#78b2d7" stroke="#78b2d7" stroke-width="1.51"/><path d="M963,1232L1160,1408L1260,1091Z" fill="#3b7bb7" stroke="#3b7bb7" stroke-width="1.51"/><path d="M983,-142L1164,-63L1268,-342Z" fill="#9ec3e2" stroke="#9ec3e2" stroke-width="1.51"/><path d="M1001,848L1260,1091L1292,904Z" fill="#418cc4" stroke="#418cc4" stroke-width="1.51"/><path d="M1127,743L1001,848L1292,904Z" fill="#4b95c8" stroke="#4b95c8" stroke-width="1.51"/><path d="M915,-350L983,-142L1268,-342Z" fill="#a7cae6" stroke="#a7cae6" stroke-width="1.51"/><path d="M1001,848L963,1232L1260,1091Z" fill="#4389c2" stroke="#4389c2" stroke-width="1.51"/><path d="M894,664L1127,743L1251,498Z" fill="#5da3d0" stroke="#5da3d0" stroke-width="1.51"/><path d="M870,456L894,664L1251,498Z" fill="#69acd5" stroke="#69acd5" stroke-width="1.51"/><path d="M1164,-63L876,125L1206,93Z" fill="#94bfdf" stroke="#94bfdf" stroke-width="1.51"/><path d="M372,-377L661,-289L915,-350Z" fill="#c3dded" stroke="#c3dded" stroke-width="1.51"/><path d="M795,990L963,1232L1001,848Z" fill="#5191c7" stroke="#5191c7" stroke-width="1.51"/><path d="M963,1232L907,1377L1160,1408Z" fill="#4178b3" stroke="#4178b3" stroke-width="1.51"/><path d="M983,-142L876,125L1164,-63Z" fill="#9cc4e3" stroke="#9cc4e3" stroke-width="1.51"/><path d="M894,664L1001,848L1127,743Z" fill="#58a0ce" stroke="#58a0ce" stroke-width="1.51"/><path d="M394,1349L147,1430L752,1437Z" fill="#6a86b6" stroke="#6a86b6" stroke-width="1.51"/><path d="M775,418L870,456L876,125Z" fill="#8abedd" stroke="#8abedd" stroke-width="1.51"/><path d="M795,990L728,1159L963,1232Z" fill="#568ec3" stroke="#568ec3" stroke-width="1.51"/><path d="M762,-70L876,125L983,-142Z" fill="#a5cae5" stroke="#a5cae5" stroke-width="1.51"/><path d="M894,664L780,696L1001,848Z" fill="#62a5d1" stroke="#62a5d1" stroke-width="1.51"/><path d="M780,696L795,990L1001,848Z" fill="#5ea0ce" stroke="#5ea0ce" stroke-width="1.51"/><path d="M762,-70L777,89L876,125Z" fill="#a5cae5" stroke="#a5cae5" stroke-width="1.51"/><path d="M915,-350L762,-70L983,-142Z" fill="#accfe7" stroke="#accfe7" stroke-width="1.51"/><path d="M661,-289L762,-70L915,-350Z" fill="#b5d5ea" stroke="#b5d5ea" stroke-width="1.51"/><path d="M728,1159L907,1377L963,1232Z" fill="#4f84bc" stroke="#4f84bc" stroke-width="1.51"/><path d="M777,89L775,418L876,125Z" fill="#97c4e0" stroke="#97c4e0" stroke-width="1.51"/><path d="M870,456L780,696L894,664Z" fill="#6fafd6" stroke="#6fafd6" stroke-width="1.51"/><path d="M728,1159L752,1437L907,1377Z" fill="#5281b8" stroke="#5281b8" stroke-width="1.51"/><path d="M775,418L780,696L870,456Z" fill="#79b5d9" stroke="#79b5d9" stroke-width="1.51"/><path d="M780,696L526,861L795,990Z" fill="#6ba6d0" stroke="#6ba6d0" stroke-width="1.51"/><path d="M728,1159L394,1349L752,1437Z" fill="#6189bc" stroke="#6189bc" stroke-width="1.51"/><path d="M509,165L775,418L777,89Z" fill="#9fc9e2" stroke="#9fc9e2" stroke-width="1.51"/><path d="M775,418L471,672L780,696Z" fill="#7eb6d9" stroke="#7eb6d9" stroke-width="1.51"/><path d="M496,1103L728,1159L795,990Z" fill="#6497c8" stroke="#6497c8" stroke-width="1.51"/><path d="M526,861L496,1103L795,990Z" fill="#6ca0cd" stroke="#6ca0cd" stroke-width="1.51"/><path d="M509,165L411,369L775,418Z" fill="#9fcae2" stroke="#9fcae2" stroke-width="1.51"/><path d="M411,369L471,672L775,418Z" fill="#8fc0de" stroke="#8fc0de" stroke-width="1.51"/><path d="M762,-70L479,-43L777,89Z" fill="#b1d1e8" stroke="#b1d1e8" stroke-width="1.51"/><path d="M479,-43L509,165L777,89Z" fill="#b1d2e7" stroke="#b1d2e7" stroke-width="1.51"/><path d="M471,672L526,861L780,696Z" fill="#79b1d6" stroke="#79b1d6" stroke-width="1.51"/><path d="M661,-289L479,-43L762,-70Z" fill="#bad7ea" stroke="#bad7ea" stroke-width="1.51"/><path d="M496,1103L394,1349L728,1159Z" fill="#6a93c5" stroke="#6a93c5" stroke-width="1.51"/><path d="M-130,1387L-363,1425L147,1430Z" fill="#8191bd" stroke="#8191bd" stroke-width="1.51"/><path d="M372,-377L479,-43L661,-289Z" fill="#c6deef" stroke="#c6deef" stroke-width="1.51"/><path d="M230,948L496,1103L526,861Z" fill="#79a6d2" stroke="#79a6d2" stroke-width="1.51"/><path d="M471,672L230,948L526,861Z" fill="#80b0d6" stroke="#80b0d6" stroke-width="1.51"/><path d="M411,369L166,410L471,672Z" fill="#9bc5e2" stroke="#9bc5e2" stroke-width="1.51"/><path d="M166,410L158,675L471,672Z" fill="#98c2e1" stroke="#98c2e1" stroke-width="1.51"/><path d="M372,-377L135,-24L479,-43Z" fill="#ccdff1" stroke="#ccdff1" stroke-width="1.51"/><path d="M180,1135L394,1349L496,1103Z" fill="#7597c8" stroke="#7597c8" stroke-width="1.51"/><path d="M122,218L411,369L509,165Z" fill="#b1d2e7" stroke="#b1d2e7" stroke-width="1.51"/><path d="M479,-43L135,-24L509,165Z" fill="#c1d9ed" stroke="#c1d9ed" stroke-width="1.51"/><path d="M135,-24L122,218L509,165Z" fill="#c0d9ed" stroke="#c0d9ed" stroke-width="1.51"/><path d="M158,675L230,948L471,672Z" fill="#8bb7db" stroke="#8bb7db" stroke-width="1.51"/><path d="M230,948L180,1135L496,1103Z" fill="#7da2d1" stroke="#7da2d1" stroke-width="1.51"/><path d="M173,-376L135,-24L372,-377Z" fill="#d6e5f5" stroke="#d6e5f5" stroke-width="1.51"/><path d="M122,218L166,410L411,369Z" fill="#b0d1e7" stroke="#b0d1e7" stroke-width="1.51"/><path d="M180,1135L147,1430L394,1349Z" fill="#7892c4" stroke="#7892c4" stroke-width="1.51"/><path d="M-10,-308L-66,-105L135,-24Z" fill="#d8e7f5" stroke="#d8e7f5" stroke-width="1.51"/><path d="M-14,587L158,675L166,410Z" fill="#a0c7e4" stroke="#a0c7e4" stroke-width="1.51"/><path d="M-3,449L-14,587L166,410Z" fill="#a9cce7" stroke="#a9cce7" stroke-width="1.51"/><path d="M-10,-308L135,-24L173,-376Z" fill="#dae8f6" stroke="#dae8f6" stroke-width="1.51"/><path d="M-66,1179L147,1430L180,1135Z" fill="#8099c9" stroke="#8099c9" stroke-width="1.51"/><path d="M-41,860L180,1135L230,948Z" fill="#87acd6" stroke="#87acd6" stroke-width="1.51"/><path d="M158,675L-41,860L230,948Z" fill="#8fb6db" stroke="#8fb6db" stroke-width="1.51"/><path d="M23,224L122,218L135,-24Z" fill="#c5dbee" stroke="#c5dbee" stroke-width="1.51"/><path d="M-66,1179L-130,1387L147,1430Z" fill="#8195c5" stroke="#8195c5" stroke-width="1.51"/><path d="M122,218L23,224L166,410Z" fill="#b9d6ea" stroke="#b9d6ea" stroke-width="1.51"/><path d="M23,224L-3,449L166,410Z" fill="#b3d3e9" stroke="#b3d3e9" stroke-width="1.51"/><path d="M-41,860L-66,1179L180,1135Z" fill="#88a9d4" stroke="#88a9d4" stroke-width="1.51"/><path d="M-14,587L-41,860L158,675Z" fill="#99c0e0" stroke="#99c0e0" stroke-width="1.51"/><path d="M-66,-105L23,224L135,-24Z" fill="#cfe1f2" stroke="#cfe1f2" stroke-width="1.51"/><path d="M-263,984L-66,1179L-41,860Z" fill="#90afd8" stroke="#90afd8" stroke-width="1.51"/><path d="M-315,602L-41,860L-14,587Z" fill="#a0c5e3" stroke="#a0c5e3" stroke-width="1.51"/><path d="M-212,-250L-66,-105L-10,-308Z" fill="#e0ecf7" stroke="#e0ecf7" stroke-width="1.51"/><path d="M-66,-105L-257,83L23,224Z" fill="#d1e2f2" stroke="#d1e2f2" stroke-width="1.51"/><path d="M-338,440L-3,449L23,224Z" fill="#b8d7ea" stroke="#b8d7ea" stroke-width="1.51"/><path d="M-257,83L-338,440L23,224Z" fill="#c6dfee" stroke="#c6dfee" stroke-width="1.51"/><path d="M-315,602L-14,587L-3,449Z" fill="#a9cde7" stroke="#a9cde7" stroke-width="1.51"/><path d="M-338,440L-315,602L-3,449Z" fill="#b1d2e9" stroke="#b1d2e9" stroke-width="1.51"/><path d="M-285,1211L-130,1387L-66,1179Z" fill="#899ecc" stroke="#899ecc" stroke-width="1.51"/><path d="M-315,602L-263,984L-41,860Z" fill="#9bbfdf" stroke="#9bbfdf" stroke-width="1.51"/><path d="M-212,-250L-377,-160L-66,-105Z" fill="#e2edf8" stroke="#e2edf8" stroke-width="1.51"/><path d="M-377,-160L-257,83L-66,-105Z" fill="#ddeaf7" stroke="#ddeaf7" stroke-width="1.51"/><path d="M-263,984L-285,1211L-66,1179Z" fill="#8fa8d3" stroke="#8fa8d3" stroke-width="1.51"/><path d="M-285,1211L-363,1425L-130,1387Z" fill="#8a9ac6" stroke="#8a9ac6" stroke-width="1.51"/><path d="M-377,-160L-338,440L-257,83Z" fill="#d5e6f3" stroke="#d5e6f3" stroke-width="1.51"/><path d="M-363,1425L-285,1211L-263,984Z" fill="#90a5d0" stroke="#90a5d0" stroke-width="1.51"/><path d="M-315,602L-363,1425L-263,984Z" fill="#97b4da" stroke="#97b4da" stroke-width="1.51"/><path d="M-338,440L-363,1425L-315,602Z" fill="#a0c1e1" stroke="#a0c1e1" stroke-width="1.51"/><path d="M-377,-160L-363,1425L-338,440Z" fill="#b1d1e9" stroke="#b1d1e9" stroke-width="1.51"/></svg>