<svg xmlns="http://www.w3.org/2000/svg" width="1920" height="1080"><path d="M-374,-396L429,-304L942,-408Z" fill="#dbf1d5" stroke="#dbf1d5" stroke-width="1.51"/><path d="M725,1368L202,1495L966,1366Z" fill="#6a95a8" stroke="#6a95a8" stroke-width="1.51"/><path d="M1208,1374L966,1366L1455,1432Z" fill="#3d87b4" stroke="#3d87b4" stroke-width="1.51"/><path d="M966,1366L202,1495L1455,1432Z" fill="#578eaa" stroke="#578eaa" stroke-width="1.51"/><path d="M1183,-409L1407,-369L1885,-399Z" fill="#a2cad9" stroke="#a2cad9" stroke-width="1.51"/><path d="M1774,1420L1455,1432L1975,1449Z" fill="#1a6aa6" stroke="#1a6aa6" stroke-width="1.51"/><path d="M1867,-114L2123,182L2245,-140Z" fill="#82a2b7" stroke="#82a2b7" stroke-width="1.51"/><path d="M2123,182L2182,444L2245,-140Z" fill="#7597aa" stroke="#7597aa" stroke-width="1.51"/><path d="M1975,1449L1455,1432L2267,1496Z" fill="#115fa0" stroke="#115fa0" stroke-width="1.51"/><path d="M1455,1432L202,1495L2267,1496Z" fill="#337daf" stroke="#337daf" stroke-width="1.51"/><path d="M2247,1239L1975,1449L2267,1496Z" fill="#0a5598" stroke="#0a5598" stroke-width="1.51"/><path d="M2124,659L1904,885L2276,975Z" fill="#3082b6" stroke="#3082b6" stroke-width="1.51"/><path d="M1918,1152L2247,1239L2276,975Z" fill="#196ba8" stroke="#196ba8" stroke-width="1.51"/><path d="M1904,885L1918,1152L2276,975Z" fill="#227ab4" stroke="#227ab4" stroke-width="1.51"/><path d="M2182,444L2124,659L2276,975Z" fill="#4084af" stroke="#4084af" stroke-width="1.51"/><path d="M2245,-140L2182,444L2276,975Z" fill="#5c8ca6" stroke="#5c8ca6" stroke-width="1.51"/><path d="M2247,1239L2267,1496L2276,975Z" fill="#105c9d" stroke="#105c9d" stroke-width="1.51"/><path d="M2123,182L2010,360L2182,444Z" fill="#6997ac" stroke="#6997ac" stroke-width="1.51"/><path d="M2230,-364L1867,-114L2245,-140Z" fill="#88a2bc" stroke="#88a2bc" stroke-width="1.51"/><path d="M1867,-114L1876,100L2123,182Z" fill="#82a8ba" stroke="#82a8ba" stroke-width="1.51"/><path d="M1885,-399L1867,-114L2230,-364Z" fill="#8facc8" stroke="#8facc8" stroke-width="1.51"/><path d="M1918,1152L1975,1449L2247,1239Z" fill="#0a65a9" stroke="#0a65a9" stroke-width="1.51"/><path d="M1937,656L1904,885L2124,659Z" fill="#3d8fbe" stroke="#3d8fbe" stroke-width="1.51"/><path d="M2010,360L1937,656L2124,659Z" fill="#5095b7" stroke="#5095b7" stroke-width="1.51"/><path d="M2010,360L2124,659L2182,444Z" fill="#5793b0" stroke="#5793b0" stroke-width="1.51"/><path d="M1876,100L2010,360L2123,182Z" fill="#74a1b3" stroke="#74a1b3" stroke-width="1.51"/><path d="M1725,-273L1867,-114L1885,-399Z" fill="#92b5cb" stroke="#92b5cb" stroke-width="1.51"/><path d="M1784,750L1904,885L1937,656Z" fill="#3c94c2" stroke="#3c94c2" stroke-width="1.51"/><path d="M1918,1152L1785,1253L1975,1449Z" fill="#116daf" stroke="#116daf" stroke-width="1.51"/><path d="M1785,1253L1774,1420L1975,1449Z" fill="#1468a8" stroke="#1468a8" stroke-width="1.51"/><path d="M1620,343L1937,656L2010,360Z" fill="#61a3ba" stroke="#61a3ba" stroke-width="1.51"/><path d="M1769,160L1620,343L2010,360Z" fill="#73abb7" stroke="#73abb7" stroke-width="1.51"/><path d="M1876,100L1769,160L2010,360Z" fill="#78a8b7" stroke="#78a8b7" stroke-width="1.51"/><path d="M1867,-114L1783,-35L1876,100Z" fill="#88b0c0" stroke="#88b0c0" stroke-width="1.51"/><path d="M1620,343L1784,750L1937,656Z" fill="#53a2bf" stroke="#53a2bf" stroke-width="1.51"/><path d="M1904,885L1710,822L1918,1152Z" fill="#2c88bd" stroke="#2c88bd" stroke-width="1.51"/><path d="M1710,822L1785,1253L1918,1152Z" fill="#2481b9" stroke="#2481b9" stroke-width="1.51"/><path d="M1407,-369L1725,-273L1885,-399Z" fill="#99bfd2" stroke="#99bfd2" stroke-width="1.51"/><path d="M1784,750L1710,822L1904,885Z" fill="#3895c3" stroke="#3895c3" stroke-width="1.51"/><path d="M1710,822L1530,859L1785,1253Z" fill="#2f8fc0" stroke="#2f8fc0" stroke-width="1.51"/><path d="M1620,343L1424,589L1784,750Z" fill="#5aacc3" stroke="#5aacc3" stroke-width="1.51"/><path d="M1783,-35L1769,160L1876,100Z" fill="#84b0be" stroke="#84b0be" stroke-width="1.51"/><path d="M1725,-273L1783,-35L1867,-114Z" fill="#8db5c6" stroke="#8db5c6" stroke-width="1.51"/><path d="M1725,-273L1469,-117L1783,-35Z" fill="#91bcca" stroke="#91bcca" stroke-width="1.51"/><path d="M1512,141L1769,160L1783,-35Z" fill="#85b6c0" stroke="#85b6c0" stroke-width="1.51"/><path d="M1469,-117L1512,141L1783,-35Z" fill="#8ebec6" stroke="#8ebec6" stroke-width="1.51"/><path d="M1424,589L1710,822L1784,750Z" fill="#47a3c7" stroke="#47a3c7" stroke-width="1.51"/><path d="M1530,859L1387,1248L1785,1253Z" fill="#2c8abe" stroke="#2c8abe" stroke-width="1.51"/><path d="M1455,1432L1774,1420L1785,1253Z" fill="#1d72ad" stroke="#1d72ad" stroke-width="1.51"/><path d="M1387,1248L1455,1432L1785,1253Z" fill="#267eb6" stroke="#267eb6" stroke-width="1.51"/><path d="M1424,589L1530,859L1710,822Z" fill="#47a6cb" stroke="#47a6cb" stroke-width="1.51"/><path d="M1512,141L1620,343L1769,160Z" fill="#7db6bd" stroke="#7db6bd" stroke-width="1.51"/><path d="M1407,-369L1469,-117L1725,-273Z" fill="#9ac6d3" stroke="#9ac6d3" stroke-width="1.51"/><path d="M1283,988L1387,1248L1530,859Z" fill="#399ac6" stroke="#399ac6" stroke-width="1.51"/><path d="M1512,141L1385,385L1620,343Z" fill="#7cbcbf" stroke="#7cbcbf" stroke-width="1.51"/><path d="M1385,385L1424,589L1620,343Z" fill="#6db9c3" stroke="#6db9c3" stroke-width="1.51"/><path d="M1254,344L1385,385L1512,141Z" fill="#80c3c2" stroke="#80c3c2" stroke-width="1.51"/><path d="M1264,82L1254,344L1512,141Z" fill="#89c8c7" stroke="#89c8c7" stroke-width="1.51"/><path d="M1469,-117L1264,82L1512,141Z" fill="#92c8c9" stroke="#92c8c9" stroke-width="1.51"/><path d="M1424,589L1187,669L1530,859Z" fill="#54b2ce" stroke="#54b2ce" stroke-width="1.51"/><path d="M1187,669L1283,988L1530,859Z" fill="#4aadd0" stroke="#4aadd0" stroke-width="1.51"/><path d="M1236,-46L1264,82L1469,-117Z" fill="#98cecf" stroke="#98cecf" stroke-width="1.51"/><path d="M1283,988L1257,1230L1387,1248Z" fill="#3a96c5" stroke="#3a96c5" stroke-width="1.51"/><path d="M1387,1248L1208,1374L1455,1432Z" fill="#3285b8" stroke="#3285b8" stroke-width="1.51"/><path d="M1407,-369L1236,-46L1469,-117Z" fill="#9cced4" stroke="#9cced4" stroke-width="1.51"/><path d="M1183,-409L1236,-46L1407,-369Z" fill="#a5d5d9" stroke="#a5d5d9" stroke-width="1.51"/><path d="M1385,385L1254,344L1424,589Z" fill="#71c0c7" stroke="#71c0c7" stroke-width="1.51"/><path d="M1254,344L1187,669L1424,589Z" fill="#69c0cb" stroke="#69c0cb" stroke-width="1.51"/><path d="M1257,1230L1208,1374L1387,1248Z" fill="#378ebf" stroke="#378ebf" stroke-width="1.51"/><path d="M-374,-396L175,-270L429,-304Z" fill="#e1f4db" stroke="#e1f4db" stroke-width="1.51"/><path d="M1183,-409L884,-151L1236,-46Z" fill="#a9dad2" stroke="#a9dad2" stroke-width="1.51"/><path d="M983,502L1187,669L1254,344Z" fill="#75c6c7" stroke="#75c6c7" stroke-width="1.51"/><path d="M1046,984L990,1100L1257,1230Z" fill="#4fa2c2" stroke="#4fa2c2" stroke-width="1.51"/><path d="M921,100L1254,344L1264,82Z" fill="#93d0c4" stroke="#93d0c4" stroke-width="1.51"/><path d="M1046,984L1257,1230L1283,988Z" fill="#48a1c5" stroke="#48a1c5" stroke-width="1.51"/><path d="M1187,669L1046,984L1283,988Z" fill="#54b0cc" stroke="#54b0cc" stroke-width="1.51"/><path d="M942,-408L884,-151L1183,-409Z" fill="#b3e0d5" stroke="#b3e0d5" stroke-width="1.51"/><path d="M1236,-46L921,100L1264,82Z" fill="#9dd5c9" stroke="#9dd5c9" stroke-width="1.51"/><path d="M921,100L983,502L1254,344Z" fill="#8dd0c0" stroke="#8dd0c0" stroke-width="1.51"/><path d="M966,1366L1208,1374L1257,1230Z" fill="#4490b9" stroke="#4490b9" stroke-width="1.51"/><path d="M990,1100L966,1366L1257,1230Z" fill="#4d99bd" stroke="#4d99bd" stroke-width="1.51"/><path d="M884,-151L921,100L1236,-46Z" fill="#a7dac9" stroke="#a7dac9" stroke-width="1.51"/><path d="M881,579L1046,984L1187,669Z" fill="#66bfcc" stroke="#66bfcc" stroke-width="1.51"/><path d="M983,502L881,579L1187,669Z" fill="#75c8c7" stroke="#75c8c7" stroke-width="1.51"/><path d="M-29,1457L-249,1463L202,1495Z" fill="#839ab3" stroke="#839ab3" stroke-width="1.51"/><path d="M669,694L785,984L881,579Z" fill="#79c6c7" stroke="#79c6c7" stroke-width="1.51"/><path d="M429,-304L773,-311L942,-408Z" fill="#c5e8cf" stroke="#c5e8cf" stroke-width="1.51"/><path d="M921,100L666,457L983,502Z" fill="#94d5bd" stroke="#94d5bd" stroke-width="1.51"/><path d="M785,984L990,1100L1046,984Z" fill="#5dadc1" stroke="#5dadc1" stroke-width="1.51"/><path d="M881,579L785,984L1046,984Z" fill="#69bcc8" stroke="#69bcc8" stroke-width="1.51"/><path d="M376,1372L202,1495L725,1368Z" fill="#7598ab" stroke="#7598ab" stroke-width="1.51"/><path d="M742,84L666,457L921,100Z" fill="#a4dbbb" stroke="#a4dbbb" stroke-width="1.51"/><path d="M884,-151L753,-47L921,100Z" fill="#afdfc5" stroke="#afdfc5" stroke-width="1.51"/><path d="M773,-311L884,-151L942,-408Z" fill="#b9e4d1" stroke="#b9e4d1" stroke-width="1.51"/><path d="M673,1197L725,1368L966,1366Z" fill="#619ab3" stroke="#619ab3" stroke-width="1.51"/><path d="M666,457L881,579L983,502Z" fill="#87d0c1" stroke="#87d0c1" stroke-width="1.51"/><path d="M673,1197L966,1366L990,1100Z" fill="#5ca0b9" stroke="#5ca0b9" stroke-width="1.51"/><path d="M785,984L673,1197L990,1100Z" fill="#65aabd" stroke="#65aabd" stroke-width="1.51"/><path d="M753,-47L742,84L921,100Z" fill="#afe0c1" stroke="#afe0c1" stroke-width="1.51"/><path d="M524,208L666,457L742,84Z" fill="#aadeb7" stroke="#aadeb7" stroke-width="1.51"/><path d="M773,-311L753,-47L884,-151Z" fill="#b8e3ca" stroke="#b8e3ca" stroke-width="1.51"/><path d="M666,457L669,694L881,579Z" fill="#89cfc0" stroke="#89cfc0" stroke-width="1.51"/><path d="M429,-304L753,-47L773,-311Z" fill="#c3e7c9" stroke="#c3e7c9" stroke-width="1.51"/><path d="M669,694L438,905L785,984Z" fill="#7ec1c2" stroke="#7ec1c2" stroke-width="1.51"/><path d="M438,905L536,1146L785,984Z" fill="#7ab6bc" stroke="#7ab6bc" stroke-width="1.51"/><path d="M536,1146L673,1197L785,984Z" fill="#71adb9" stroke="#71adb9" stroke-width="1.51"/><path d="M429,-304L390,-25L753,-47Z" fill="#c6e9c6" stroke="#c6e9c6" stroke-width="1.51"/><path d="M390,-25L742,84L753,-47Z" fill="#bbe4bf" stroke="#bbe4bf" stroke-width="1.51"/><path d="M666,457L525,493L669,694Z" fill="#93d4bd" stroke="#93d4bd" stroke-width="1.51"/><path d="M390,-25L524,208L742,84Z" fill="#bae4bd" stroke="#bae4bd" stroke-width="1.51"/><path d="M536,1146L376,1372L673,1197Z" fill="#75a6b6" stroke="#75a6b6" stroke-width="1.51"/><path d="M673,1197L376,1372L725,1368Z" fill="#709eb0" stroke="#709eb0" stroke-width="1.51"/><path d="M524,208L525,493L666,457Z" fill="#a3dab9" stroke="#a3dab9" stroke-width="1.51"/><path d="M525,493L439,596L669,694Z" fill="#94d3c0" stroke="#94d3c0" stroke-width="1.51"/><path d="M439,596L438,905L669,694Z" fill="#8dcdc5" stroke="#8dcdc5" stroke-width="1.51"/><path d="M224,251L173,377L525,493Z" fill="#b1e1bf" stroke="#b1e1bf" stroke-width="1.51"/><path d="M524,208L224,251L525,493Z" fill="#b0e0ba" stroke="#b0e0ba" stroke-width="1.51"/><path d="M438,905L216,1097L536,1146Z" fill="#83b7bf" stroke="#83b7bf" stroke-width="1.51"/><path d="M216,1097L376,1372L536,1146Z" fill="#7fabba" stroke="#7fabba" stroke-width="1.51"/><path d="M-374,-396L-43,-243L175,-270Z" fill="#e5f5df" stroke="#e5f5df" stroke-width="1.51"/><path d="M390,-25L224,251L524,208Z" fill="#bfe6bf" stroke="#bfe6bf" stroke-width="1.51"/><path d="M173,377L439,596L525,493Z" fill="#a4dbc1" stroke="#a4dbc1" stroke-width="1.51"/><path d="M160,-132L390,-25L429,-304Z" fill="#d1edcc" stroke="#d1edcc" stroke-width="1.51"/><path d="M175,-270L160,-132L429,-304Z" fill="#d8f0d1" stroke="#d8f0d1" stroke-width="1.51"/><path d="M168,1004L216,1097L438,905Z" fill="#8cbdc4" stroke="#8cbdc4" stroke-width="1.51"/><path d="M132,645L168,1004L438,905Z" fill="#94cacb" stroke="#94cacb" stroke-width="1.51"/><path d="M132,645L438,905L439,596Z" fill="#97d1c9" stroke="#97d1c9" stroke-width="1.51"/><path d="M173,377L132,645L439,596Z" fill="#a6dcc6" stroke="#a6dcc6" stroke-width="1.51"/><path d="M160,-132L18,122L224,251Z" fill="#cdecc8" stroke="#cdecc8" stroke-width="1.51"/><path d="M216,1097L202,1495L376,1372Z" fill="#81a4b7" stroke="#81a4b7" stroke-width="1.51"/><path d="M160,-132L224,251L390,-25Z" fill="#cdebc6" stroke="#cdebc6" stroke-width="1.51"/><path d="M132,645L-8,687L168,1004Z" fill="#9cd1d1" stroke="#9cd1d1" stroke-width="1.51"/><path d="M-8,687L-97,938L168,1004Z" fill="#99cad1" stroke="#99cad1" stroke-width="1.51"/><path d="M5,1177L-29,1457L202,1495Z" fill="#84a1b9" stroke="#84a1b9" stroke-width="1.51"/><path d="M5,1177L202,1495L216,1097Z" fill="#87abbf" stroke="#87abbf" stroke-width="1.51"/><path d="M18,122L173,377L224,251Z" fill="#c1e7c3" stroke="#c1e7c3" stroke-width="1.51"/><path d="M-121,456L132,645L173,377Z" fill="#b0e0ca" stroke="#b0e0ca" stroke-width="1.51"/><path d="M168,1004L5,1177L216,1097Z" fill="#8cb7c5" stroke="#8cb7c5" stroke-width="1.51"/><path d="M-121,456L-8,687L132,645Z" fill="#abdbcf" stroke="#abdbcf" stroke-width="1.51"/><path d="M-71,-124L18,122L160,-132Z" fill="#d7f0d0" stroke="#d7f0d0" stroke-width="1.51"/><path d="M18,122L-121,456L173,377Z" fill="#bfe6c6" stroke="#bfe6c6" stroke-width="1.51"/><path d="M-43,-243L160,-132L175,-270Z" fill="#dbf1d5" stroke="#dbf1d5" stroke-width="1.51"/><path d="M-97,938L5,1177L168,1004Z" fill="#91bdca" stroke="#91bdca" stroke-width="1.51"/><path d="M-43,-243L-71,-124L160,-132Z" fill="#dcf2d6" stroke="#dcf2d6" stroke-width="1.51"/><path d="M-97,938L-319,1173L5,1177Z" fill="#94bbcd" stroke="#94bbcd" stroke-width="1.51"/><path d="M-249,1463L-29,1457L5,1177Z" fill="#89a4be" stroke="#89a4be" stroke-width="1.51"/><path d="M-319,1173L-249,1463L5,1177Z" fill="#8fadc8" stroke="#8fadc8" stroke-width="1.51"/><path d="M-71,-124L-246,240L18,122Z" fill="#d4efcf" stroke="#d4efcf" stroke-width="1.51"/><path d="M-246,240L-121,456L18,122Z" fill="#c7e9ca" stroke="#c7e9ca" stroke-width="1.51"/><path d="M-121,456L-313,611L-8,687Z" fill="#b0ded4" stroke="#b0ded4" stroke-width="1.51"/><path d="M-305,863L-97,938L-8,687Z" fill="#a0d0d8" stroke="#a0d0d8" stroke-width="1.51"/><path d="M-290,-160L-246,240L-71,-124Z" fill="#ddf2d6" stroke="#ddf2d6" stroke-width="1.51"/><path d="M-313,611L-305,863L-8,687Z" fill="#a9d8d9" stroke="#a9d8d9" stroke-width="1.51"/><path d="M-374,-396L-290,-160L-43,-243Z" fill="#e8f6e2" stroke="#e8f6e2" stroke-width="1.51"/><path d="M-290,-160L-71,-124L-43,-243Z" fill="#e1f4db" stroke="#e1f4db" stroke-width="1.51"/><path d="M-305,863L-319,1173L-97,938Z" fill="#9bc4d4" stroke="#9bc4d4" stroke-width="1.51"/><path d="M-246,240L-358,496L-121,456Z" fill="#c1e7d0" stroke="#c1e7d0" stroke-width="1.51"/><path d="M-358,496L-313,611L-121,456Z" fill="#b8e3d5" stroke="#b8e3d5" stroke-width="1.51"/><path d="M-290,-160L-358,496L-246,240Z" fill="#d3eed2" stroke="#d3eed2" stroke-width="1.51"/><path d="M-374,-396L-358,496L-290,-160Z" fill="#e2f4da" stroke="#e2f4da" stroke-width="1.51"/><path d="M-313,611L-358,496L-305,863Z" fill="#b1dddb" stroke="#b1dddb" stroke-width="1.51"/><path d="M-358,496L-319,1173L-305,863Z" fill="#a6d1dd" stroke="#a6d1dd" stroke-width="1.51"/></svg>